<?xml version="1.0" encoding="utf-8"?>
<!-- Generator: Adobe Illustrator 23.0.2, SVG Export Plug-In . SVG Version: 6.00 Build 0)  -->
<svg version="1.1" id="Layer_1" xmlns="http://www.w3.org/2000/svg" xmlns:xlink="http://www.w3.org/1999/xlink" x="0px" y="0px"
	 viewBox="0 0 183.8 143.9" style="enable-background:new 0 0 183.8 143.9;" xml:space="preserve">
<style type="text/css">
	.st0{fill:#500000;}
	.st1{fill:#FFFFFF;}
	.st2{fill:#B1B3B6;}
</style>
<title>Artboard 1</title>
<rect x="46" y="2.8" class="st0" width="85.1" height="85.8"/>
<polygon class="st1" points="119.8,36.9 113.5,36.9 113.1,36.9 112.9,37.2 108.4,46.8 103.8,37.2 103.6,36.9 103.2,36.9 97.1,36.9 
	96.6,36.9 96.6,37.5 96.6,40.7 96.6,41.3 97.1,41.3 98.2,41.3 98.2,55 97,55 96.5,55 96.5,55.5 96.5,58.8 96.5,59.4 97,59.4 
	103.9,59.4 104.5,59.4 104.5,58.8 104.5,55.5 104.5,55 103.9,55 102.7,55 102.7,45.3 107.8,55.8 108.4,56.9 108.9,55.8 114.1,45.2 
	114.1,55 112.9,55 112.4,55 112.4,55.5 112.4,58.8 112.4,59.4 112.9,59.4 119.8,59.4 120.4,59.4 120.4,58.8 120.4,55.5 120.4,55 
	119.8,55 118.6,55 118.6,41.3 119.8,41.3 120.4,41.3 120.4,40.7 120.4,37.5 120.4,36.9 "/>
<path class="st1" d="M80,54.9h-1.8l-6-13.7h1.2v-4.4h-9.5v4.4h1.3l-5.9,13.7h-2.5v4.4h8.7v-4.4h-1.3l1-2.3h7.1l1,2.3h-1.3v4.4h8.7
	v-4.4H80z M70.4,48.2h-3.3l1.7-3.8L70.4,48.2z"/>
<polygon class="st1" points="112.5,19.7 64.4,19.7 63.7,19.7 63.7,20.4 63.7,33.2 63.7,33.9 64.4,33.9 72.7,33.9 73.4,33.9 
	73.4,33.2 73.4,28.5 83.7,28.5 83.7,62.4 78.9,62.4 78.2,62.4 78.2,63 78.2,71.3 78.2,72 78.9,72 98.1,72 98.7,72 98.7,71.3 
	98.7,63 98.7,62.4 98.1,62.4 93.3,62.4 93.3,28.5 103.5,28.5 103.5,33.2 103.5,33.9 104.2,33.9 112.5,33.9 113.2,33.9 113.2,33.2 
	113.2,20.4 113.2,19.7 "/>
<polygon class="st2" points="94.7,66.3 96.8,64.2 96.8,70 94.7,68 "/>
<polygon class="st2" points="91.3,64.4 89.3,66.4 89.3,24.5 91.3,26.5 "/>
<polygon class="st2" points="67.8,23.7 65.7,21.7 110.2,21.7 107.6,23.7 "/>
<polygon class="st2" points="111.3,32 109.2,30.1 109.2,24.9 111.3,22.8 "/>
<polygon class="st0" points="174,128.3 174,128.3 174,128.3 "/>
<path class="st0" d="M3.2,108.4v5.6h1.4c0-1,0.2-1.9,0.7-2.7c0.3-0.5,0.8-0.9,1.4-1.1c0.7-0.1,1.4-0.2,2.1-0.2h2.1v14.6
	c0.1,0.7-0.1,1.3-0.5,1.8c-0.7,0.4-1.5,0.6-2.4,0.5v1.3h10V127c-0.6,0-1.3-0.1-1.9-0.3c-0.4-0.1-0.7-0.4-0.8-0.7
	c-0.1-0.4-0.2-0.9-0.2-1.3v-14.6h2.5c0.6,0,1.1,0.1,1.7,0.2c0.6,0.2,1,0.6,1.3,1.1c0.5,0.8,0.8,1.8,0.8,2.7h1.4v-5.6L3.2,108.4z"/>
<path class="st0" d="M39.6,125.1c-0.5,0.6-1.1,1.1-1.8,1.3c-0.6,0.2-1.3,0.3-1.9,0.3h-1.6c-0.6,0-1.1,0-1.6-0.2
	c-0.3-0.1-0.6-0.3-0.8-0.5c-0.2-0.3-0.3-0.6-0.3-0.9c0-0.4-0.1-0.9-0.1-1.7v-4.7h2c0.5,0,1,0,1.5,0.2c0.3,0.1,0.6,0.4,0.7,0.7
	c0.2,0.5,0.3,1.1,0.3,1.6h1.3v-6.6H36c0,0.5-0.1,1.1-0.3,1.6c-0.1,0.3-0.4,0.6-0.7,0.7c-0.5,0.1-1,0.2-1.5,0.2h-2v-7h3.7
	c0.7,0,1.5,0,2.2,0.2c0.5,0.1,1,0.5,1.3,0.9c0.5,0.7,0.9,1.6,1.1,2.5h1.3l-0.3-5.2H24.4v1.3c0.7,0,1.3,0.1,1.9,0.3
	c0.4,0.1,0.6,0.4,0.8,0.8c0.1,0.4,0.2,0.9,0.2,1.3v12.5c0.1,0.7-0.1,1.3-0.5,1.8c-0.7,0.4-1.5,0.6-2.4,0.5v1.3h17.7l0.2-6.5h-1.4
	C40.8,122.9,40.3,124.1,39.6,125.1z"/>
<path class="st0" d="M77.7,126.8c-0.6,0.1-1.2,0.2-1.7,0.2v1.4h9.4V127c-0.5,0-1-0.1-1.5-0.3c-0.4-0.2-0.7-0.5-0.8-0.9
	c-0.2-0.4-0.5-1.1-1-2.2l-6-15.5h-1.4l-5.7,15c-0.3,0.8-0.7,1.7-1.1,2.4c-0.3,0.5-0.6,0.9-1.1,1.2c-0.2,0.1-0.4,0.2-0.7,0.2
	c-0.3,0-0.7-0.1-1-0.3c-0.5-0.2-1-0.6-1.4-1c-0.6-0.7-1.2-1.4-1.8-2.2l-4.9-6.3l3.5-4.1c0.8-0.9,1.4-1.5,1.8-1.9
	c0.4-0.4,0.9-0.7,1.4-1c0.6-0.3,1.3-0.4,1.9-0.4v-1.3h-8.2v1.3H58c0.5,0,0.9,0,1.4,0.2c0.2,0.1,0.4,0.4,0.4,0.7c0,0.2,0,0.4-0.1,0.6
	c-0.1,0.1-0.3,0.4-0.6,0.8l-3.1,3.7l-2.8-3.6c-0.4-0.5-0.7-1-0.9-1.6c0-0.3,0.1-0.6,0.4-0.7c0.4-0.1,0.8-0.1,1.2-0.1h0.8v-1.3H43.9
	v1.3c0.6,0,1.2,0.1,1.8,0.2c0.4,0.1,0.8,0.4,1.1,0.7c0.3,0.3,0.8,1,1.6,1.9l4.8,6.3l-3.5,4.1c-0.7,0.9-1.6,1.8-2.4,2.5
	c-0.5,0.5-1,0.8-1.7,1.1c-0.5,0.2-1.1,0.3-1.7,0.3v1.3h8.8V127c-0.5,0-0.9,0-1.4-0.1c-0.3,0-0.6-0.1-0.9-0.3
	c-0.2-0.2-0.4-0.5-0.4-0.8c0.2-0.7,0.5-1.4,1.1-1.9l3.1-3.6l3.2,4.2c0.4,0.4,0.6,0.9,0.8,1.4c0,0.4-0.2,0.8-0.6,0.9
	c-0.4,0.1-0.9,0.2-1.4,0.2h-0.9v1.4H72V127c-0.5,0-1.1-0.1-1.6-0.2c-0.5-0.2-0.7-0.6-0.7-1.1c0.1-0.5,0.2-1.1,0.4-1.6l0.5-1.3h6.4
	l1,2.3c0.1,0.3,0.2,0.6,0.2,0.9C78.3,126.4,78.1,126.7,77.7,126.8z M71.2,121.3l2.6-6.9l2.7,6.9H71.2z"/>
<path class="st0" d="M98.8,126.2c0.5-0.6,0.9-1.2,1.2-1.9c0.3-0.6,0.4-1.3,0.4-1.9c0-1-0.3-1.9-0.8-2.7c-0.6-0.8-1.3-1.4-2.1-1.9
	c-1.1-0.6-2.2-1.2-3.4-1.8c-1.2-0.5-2-1-2.6-1.3c-0.5-0.3-0.9-0.6-1.3-1.1c-0.3-0.4-0.5-0.9-0.5-1.5c0-0.7,0.3-1.3,0.8-1.8
	c0.6-0.5,1.3-0.7,2.1-0.7c2.4,0,4,1.5,5,4.4h1.3v-5.4h-1.3c-0.1,0.6-0.3,1.2-0.5,1.7c-0.6-0.7-1.3-1.3-2.1-1.7
	c-0.8-0.4-1.7-0.6-2.6-0.6c-1.1,0-2.2,0.3-3.1,0.8c-0.9,0.5-1.6,1.2-2.1,2.1c-0.5,0.8-0.7,1.7-0.7,2.6c0,0.5,0.1,1,0.2,1.5
	c0.2,0.5,0.5,1.1,0.8,1.5c0.5,0.6,1.1,1.2,1.7,1.6c0.9,0.7,1.9,1.2,2.9,1.7c0.8,0.3,1.5,0.7,2,1c0.5,0.2,1,0.5,1.4,0.9
	c0.3,0.3,0.6,0.6,0.8,0.9c0.5,1.1,0.3,2.4-0.6,3.2c-0.7,0.6-1.5,0.8-2.3,0.8c-1,0-2-0.3-2.8-0.9c-0.7-0.6-1.4-1.3-1.8-2.2
	c-0.4-0.9-0.8-1.8-1-2.7h-1.3v6.6h1.3c0.1-0.7,0.3-1.3,0.6-1.9c0.7,0.9,1.6,1.6,2.6,2c1,0.4,2,0.7,3.1,0.7c1,0,1.9-0.2,2.8-0.6
	C97.6,127.4,98.2,126.9,98.8,126.2z"/>
<path class="st0" d="M128.3,125.7c-0.2-0.4-0.5-1.1-1-2.2l-6.1-15.5h-1.4l-5.7,15c-0.3,0.8-0.7,1.6-1.1,2.4
	c-0.3,0.5-0.6,0.9-1.1,1.2c-0.4,0.2-0.9,0.3-1.4,0.3v1.4h6.8V127c-0.5,0-1.1-0.1-1.6-0.2c-0.5-0.2-0.7-0.6-0.7-1.1
	c0.1-0.5,0.2-1.1,0.4-1.6l0.5-1.3h6.4l1,2.3c0.1,0.3,0.2,0.6,0.2,0.9c0,0.4-0.2,0.7-0.5,0.8c-0.6,0.1-1.2,0.2-1.7,0.2v1.4h9.4V127
	c-0.5,0-1.1-0.1-1.5-0.3C128.8,126.4,128.5,126.1,128.3,125.7z M116.6,121.3l2.6-6.9l2.7,6.9H116.6z"/>
<path class="st0" d="M166.7,126c-0.1,0.3-0.4,0.6-0.8,0.8c-0.6,0.2-1.3,0.3-1.9,0.3v1.4h10V127c-0.7,0-1.3-0.1-1.9-0.3
	c-0.4-0.1-0.7-0.4-0.8-0.8c-0.1-0.4-0.2-0.9-0.2-1.3v-12.5c-0.1-0.7,0.1-1.3,0.5-1.8c0.7-0.5,1.5-0.6,2.4-0.5v-1.3h-7.1l-6.6,14
	l-6.6-14h-7.3v1.3c0.7,0,1.4,0.1,2,0.3c0.4,0.1,0.6,0.5,0.7,0.8c0.1,0.6,0.2,1.2,0.1,1.8V124c0,0.5,0,1-0.1,1.4
	c0,0.3-0.1,0.6-0.3,0.8c-0.2,0.3-0.5,0.4-0.8,0.5c-0.5,0.1-1.1,0.2-1.6,0.2v1.3h7.3V127c-0.5,0-1.1,0-1.6-0.2
	c-0.3-0.1-0.6-0.3-0.9-0.5c-0.2-0.2-0.3-0.5-0.3-0.8c-0.1-0.5-0.1-1-0.1-1.4v-11.8l7.6,16.1h0.9l7.5-16.1v12.5
	C166.9,125.1,166.8,125.5,166.7,126z"/>
<path class="st0" d="M11.8,135.2c0.2,0,0.5,0,0.7,0.1c0.1,0,0.3,0.1,0.4,0.2c0.1,0.1,0.1,0.2,0.1,0.3c0,0.2,0,0.4,0,0.6v2.9
	c0,0.3,0,0.7,0,1c0,0.3-0.1,0.5-0.2,0.8c-0.2,0.3-0.4,0.6-0.8,0.8c-0.4,0.2-0.8,0.3-1.2,0.3c-0.4,0-0.8-0.1-1.1-0.3
	c-0.3-0.2-0.6-0.4-0.7-0.8c-0.1-0.2-0.1-0.5-0.2-0.7c0-0.3-0.1-0.6,0-0.9v-3.4c0-0.2,0-0.4,0.1-0.6c0.1-0.1,0.2-0.3,0.3-0.3
	c0.3-0.1,0.5-0.1,0.8-0.1v-0.6H5.9v0.6c0.3,0,0.7,0,1,0.2c0.2,0.2,0.2,0.5,0.2,0.8v3.4c0,0.3,0,0.5,0,0.7c0,0.2,0,0.4,0.1,0.6
	c0.1,0.2,0.1,0.4,0.2,0.6c0.2,0.4,0.4,0.7,0.8,0.9c0.3,0.2,0.7,0.4,1.1,0.5c0.4,0.1,0.8,0.2,1.2,0.2c0.5,0,1.1-0.1,1.6-0.3
	c0.6-0.2,1-0.6,1.3-1.1c0.2-0.3,0.3-0.5,0.3-0.8c0-0.4,0.1-0.8,0.1-1.3v-3c0-0.2,0-0.5,0.1-0.7c0-0.2,0.1-0.3,0.3-0.4
	c0.2-0.1,0.5-0.1,0.8-0.1v-0.6h-3L11.8,135.2z"/>
<path class="st0" d="M31.1,134.6v0.6c0.3,0,0.5,0,0.8,0.1c0.2,0.1,0.3,0.2,0.3,0.4c0,0.2,0.1,0.5,0.1,0.7v3.7l-4.7-5.5h-2.4v0.6
	c0.2,0,0.4,0.1,0.6,0.2c0.1,0.1,0.3,0.2,0.3,0.3c0.1,0.1,0.1,0.3,0.1,0.4c0,0.2,0,0.4,0,0.8v4.2c0,0.3,0,0.5-0.1,0.8
	c0,0.2-0.2,0.3-0.3,0.4c-0.3,0.1-0.5,0.1-0.8,0.1v0.6h3.1v-0.6c-0.3,0-0.6,0-0.8-0.1c-0.2-0.1-0.3-0.2-0.3-0.4
	c0-0.2-0.1-0.5-0.1-0.8v-4.5l5.4,6.4h0.6v-6.5c0-0.3,0-0.5,0.1-0.8c0-0.2,0.2-0.3,0.3-0.4c0.3-0.1,0.6-0.1,0.8-0.1v-0.5L31.1,134.6z
	"/>
<path class="st0" d="M44.5,135.2c0.3,0,0.7,0,1,0.2c0.2,0.2,0.3,0.5,0.2,0.8v5.1c0,0.2,0,0.4-0.1,0.6c-0.1,0.1-0.2,0.3-0.4,0.3
	c-0.3,0.1-0.5,0.1-0.8,0.1v0.6h4.2v-0.6c-0.3,0-0.5,0-0.8-0.1c-0.1,0-0.3-0.2-0.3-0.3c-0.1-0.2-0.1-0.4-0.1-0.6v-5.1
	c0-0.2,0-0.4,0.1-0.6c0.1-0.1,0.2-0.2,0.4-0.3c0.3-0.1,0.5-0.1,0.8-0.1v-0.6h-4.2V135.2z"/>
<path class="st0" d="M65,135.2c0.3,0,0.6,0,0.8,0.1c0.2,0.1,0.3,0.2,0.3,0.5c0,0.3-0.1,0.5-0.2,0.7l-1.7,4.1l-1.9-4.4
	c-0.1-0.2-0.1-0.4-0.1-0.6c0-0.2,0.1-0.3,0.2-0.4c0.3-0.1,0.5-0.1,0.8-0.1v-0.6H59v0.6c0.2,0,0.5,0,0.7,0.1c0.2,0.1,0.3,0.2,0.4,0.3
	c0.2,0.3,0.3,0.6,0.4,0.8l2.8,6.5h0.6l2.6-6.2c0.2-0.4,0.3-0.7,0.4-0.8c0.1-0.2,0.2-0.3,0.3-0.4c0.1-0.1,0.2-0.2,0.4-0.2
	c0.2-0.1,0.3-0.1,0.5-0.1v-0.5h-3V135.2z"/>
<path class="st0" d="M84.7,141.5c-0.2,0.3-0.4,0.4-0.7,0.5c-0.3,0.1-0.5,0.1-0.8,0.1h-0.7c-0.2,0-0.5,0-0.7-0.1
	c-0.1,0-0.3-0.1-0.3-0.2c-0.1-0.1-0.1-0.2-0.1-0.4c0-0.2,0-0.4,0-0.7v-1.9h0.8c0.2,0,0.4,0,0.6,0.1c0.1,0,0.2,0.1,0.3,0.3
	c0.1,0.2,0.1,0.4,0.1,0.7h0.6v-2.7h-0.6c0,0.2,0,0.4-0.1,0.7c-0.1,0.1-0.2,0.2-0.3,0.3c-0.2,0.1-0.4,0.1-0.6,0.1h-0.8v-2.9h1.5
	c0.3,0,0.6,0,0.9,0.1c0.2,0.1,0.4,0.2,0.6,0.4c0.2,0.3,0.4,0.6,0.4,1h0.6l-0.1-2.1h-6.8v0.6c0.3,0,0.5,0,0.8,0.1
	c0.2,0.1,0.3,0.2,0.3,0.3c0.1,0.2,0.1,0.4,0.1,0.5v5.1c0,0.3-0.1,0.5-0.2,0.8c-0.3,0.2-0.6,0.3-1,0.2v0.6h7.3l0.1-2.7h-0.6
	C85.2,140.6,85,141.1,84.7,141.5z"/>
<path class="st0" d="M104.7,142.1c-0.2-0.1-0.3-0.2-0.5-0.4c-0.2-0.3-0.4-0.6-0.6-0.9c-0.4-0.7-0.8-1.2-1-1.4
	c-0.2-0.3-0.5-0.5-0.8-0.6c0.4-0.1,0.7-0.3,1-0.5c0.2-0.2,0.4-0.4,0.6-0.7c0.1-0.2,0.2-0.5,0.2-0.8c0-0.3-0.1-0.7-0.3-1
	c-0.2-0.3-0.4-0.5-0.7-0.7c-0.3-0.2-0.6-0.3-0.9-0.4c-0.3-0.1-0.6-0.1-0.8-0.1c-0.4,0-0.7-0.1-1.1-0.1h-1.1h-0.5l-1.9,0.1v0.6
	c0.3,0,0.7,0,1,0.2c0.2,0.2,0.2,0.5,0.2,0.8v5.2c0,0.3,0,0.5-0.2,0.8c-0.3,0.2-0.6,0.3-1,0.2v0.6h4.1v-0.6c-0.3,0-0.5,0-0.8-0.1
	c-0.2,0-0.3-0.2-0.3-0.3c-0.1-0.2-0.1-0.4-0.1-0.5v-2.2h0.3c0.3,0,0.6,0,0.8,0.1c0.2,0,0.3,0.2,0.4,0.3c0.2,0.3,0.4,0.6,0.6,0.8
	l0.6,0.9l0.3,0.6c0.1,0.2,0.3,0.4,0.4,0.6c0.1,0.1,0.2,0.3,0.3,0.4h2.2v-0.5C105,142.2,104.9,142.2,104.7,142.1z M101.2,138.2
	c-0.5,0.2-1,0.3-1.5,0.3h-0.4v-3.2h0.4c0.5,0,1.1,0.1,1.6,0.3c0.4,0.3,0.7,0.8,0.6,1.3C101.9,137.5,101.7,138,101.2,138.2z"/>
<path class="st0" d="M120.5,138.5c-0.5-0.3-0.9-0.5-1.4-0.7c-0.5-0.2-0.9-0.4-1.1-0.5c-0.2-0.1-0.4-0.3-0.5-0.4
	c-0.1-0.2-0.2-0.4-0.2-0.6c0-0.3,0.1-0.6,0.3-0.7c0.2-0.2,0.6-0.3,0.9-0.3c1,0,1.7,0.6,2.1,1.9h0.6v-2.3h-0.6c0,0.2-0.1,0.5-0.2,0.7
	c-0.2-0.3-0.6-0.5-0.9-0.7c-0.3-0.2-0.7-0.3-1.1-0.3c-0.5,0-0.9,0.1-1.3,0.3c-0.4,0.2-0.7,0.5-0.9,0.9c-0.2,0.3-0.3,0.7-0.3,1.1
	c0,0.2,0,0.4,0.1,0.6c0.1,0.2,0.2,0.4,0.3,0.6c0.2,0.3,0.4,0.5,0.7,0.7c0.4,0.3,0.8,0.5,1.2,0.7l0.9,0.4c0.2,0.1,0.4,0.2,0.6,0.4
	c0.1,0.1,0.2,0.2,0.3,0.4c0.1,0.2,0.1,0.3,0.1,0.5c0,0.3-0.1,0.6-0.4,0.8c-0.3,0.2-0.6,0.3-1,0.3c-0.4,0-0.8-0.1-1.2-0.4
	c-0.3-0.2-0.6-0.6-0.8-0.9c-0.2-0.4-0.3-0.7-0.4-1.1h-0.6v2.8h0.6c0-0.3,0.1-0.6,0.2-0.8c0.3,0.4,0.7,0.7,1.1,0.8
	c0.4,0.2,0.8,0.3,1.3,0.3c0.4,0,0.8-0.1,1.2-0.2c0.3-0.2,0.6-0.4,0.8-0.7c0.2-0.2,0.4-0.5,0.5-0.8c0.1-0.3,0.2-0.5,0.2-0.8
	c0-0.4-0.1-0.8-0.4-1.2C121.1,139,120.8,138.7,120.5,138.5z"/>
<path class="st0" d="M132.4,135.2c0.3,0,0.7,0,1,0.2c0.2,0.2,0.3,0.5,0.2,0.8v5.1c0,0.2,0,0.4-0.1,0.6c-0.1,0.1-0.2,0.2-0.4,0.3
	c-0.3,0.1-0.5,0.1-0.8,0.1v0.6h4.2v-0.6c-0.3,0-0.5,0-0.8-0.1c-0.1-0.1-0.3-0.2-0.3-0.3c-0.1-0.2-0.1-0.4-0.1-0.6v-5.1
	c0-0.2,0-0.4,0.1-0.6c0.1-0.1,0.2-0.2,0.4-0.3c0.3-0.1,0.5-0.1,0.8-0.1v-0.6h-4.2L132.4,135.2z"/>
<path class="st0" d="M147,137h0.6c0-0.4,0.1-0.8,0.3-1.1c0.1-0.2,0.3-0.4,0.6-0.4c0.3-0.1,0.6-0.1,0.8-0.1h0.9v6
	c0,0.3,0,0.5-0.2,0.8c-0.3,0.2-0.6,0.3-1,0.2v0.6h4.1v-0.6c-0.3,0-0.5,0-0.8-0.1c-0.2,0-0.3-0.2-0.3-0.3c-0.1-0.2-0.1-0.4-0.1-0.6
	v-6h1c0.2,0,0.5,0,0.7,0.1c0.2,0.1,0.4,0.2,0.6,0.4c0.2,0.3,0.3,0.7,0.3,1.1h0.6v-2.3h-8.1L147,137z"/>
<path class="st0" d="M171,135.2c0.2,0,0.5,0,0.7,0.1c0.2,0.1,0.3,0.2,0.3,0.5c-0.1,0.3-0.2,0.6-0.4,0.9l-1.2,1.9l-1.3-2.2
	c-0.1-0.2-0.2-0.4-0.3-0.6c0-0.1-0.1-0.2-0.1-0.3c0-0.1,0-0.2,0.1-0.3c0.1-0.1,0.2-0.1,0.3-0.1h0.5v-0.6h-3.8v0.5
	c0.2,0,0.4,0,0.6,0.1c0.2,0.2,0.4,0.3,0.5,0.6v0.1l0.1,0.1l2.1,3.4v1.8c0,0.2,0,0.4-0.1,0.6c-0.1,0.1-0.2,0.3-0.3,0.3
	c-0.3,0.1-0.5,0.1-0.8,0.1v0.6h4.1v-0.6c-0.3,0-0.5,0-0.8-0.1c-0.1-0.1-0.3-0.2-0.3-0.3c-0.1-0.2-0.1-0.4-0.1-0.5v-1.9l1.7-2.7
	c0.3-0.4,0.5-0.8,0.7-1c0.1-0.2,0.3-0.3,0.4-0.4c0.2-0.1,0.4-0.1,0.6-0.2l0,0v-0.5h-3L171,135.2z"/>
<path class="st0" d="M146.5,123.6l0.1-0.3h-1.1l-0.1,0.1c-0.3,0.5-0.8,0.9-1.4,0.9c-0.4,0-0.9-0.1-1.3-0.4c-0.6-0.5-1.2-1.2-1.7-1.9
	c0.4-0.6,0.7-1.3,1-1.9c0.3-0.8,0.7-1.6,1.3-2.3c0.4-0.4,0.9-0.6,1.4-0.8h0.1h0.2v-1.3h-5.6v1.2h0.2h0.1c1.3,0.1,1.4,0.7,1.4,1.1
	c0,0.5-0.2,0.9-0.4,1.4c-0.2,0.5-0.4,0.9-0.7,1.3l-3.2-4.5c2-1.1,3.1-2.3,3.1-3.5c0-0.9-0.4-1.7-1.1-2.1c-0.7-0.5-1.6-0.8-2.4-0.8
	c-1,0-1.9,0.3-2.5,1c-0.6,0.6-1,1.5-1,2.3c0.1,1.2,0.5,2.3,1.2,3.2c-1,0.6-1.9,1.4-2.7,2.3c-0.6,0.7-0.9,1.7-0.9,2.6
	c0,0.8,0.2,1.7,0.7,2.4c0.9,1.3,2.4,2.1,4,2.2c1.6-0.1,3.1-0.8,4.2-2.1c0.9,1.2,2.4,2,3.9,2.1c0.7,0,1.4-0.2,2-0.6
	C145.8,125,146.2,124.4,146.5,123.6L146.5,123.6z M136.2,115.3c-0.6-0.7-1-1.6-1.1-2.5c0-0.4,0.1-0.8,0.4-1.1c0.6-0.6,1.5-0.6,2.1,0
	c0.3,0.3,0.4,0.8,0.4,1.2C138,113.8,137.4,114.6,136.2,115.3L136.2,115.3z M134.9,117.8c1,1.4,2.3,3.1,3.7,5.3
	c-0.6,0.7-1.5,1.2-2.4,1.2c-0.9,0-1.7-0.4-2.3-1.1c-0.6-0.6-1-1.5-1-2.4c0-0.6,0.2-1.2,0.6-1.7C133.9,118.6,134.4,118.1,134.9,117.8
	L134.9,117.8z"/>
<path class="st0" d="M180.8,141L180.8,141c0.3-0.1,0.4-0.3,0.4-0.5c0-0.2-0.1-0.3-0.2-0.5c-0.2-0.1-0.4-0.2-0.7-0.2
	c-0.2,0-0.4,0-0.6,0v2.1h0.4v-1h0.2c0.2,0,0.4,0.1,0.5,0.3c0,0,0,0,0,0c0,0.2,0.1,0.4,0.1,0.6h0.4c-0.1-0.2-0.1-0.4-0.1-0.5
	C181.1,141.2,180.9,141.1,180.8,141z M180.3,140.9H180v-0.8h0.3c0.4,0,0.5,0.2,0.5,0.4C180.8,140.7,180.6,140.9,180.3,140.9
	L180.3,140.9z"/>
<path class="st0" d="M180.4,139L180.4,139c-1.1,0-1.9,0.9-1.9,1.9s0.9,1.9,1.9,1.9s1.9-0.9,1.9-1.9C182.4,139.9,181.5,139,180.4,139
	C180.4,139,180.4,139,180.4,139L180.4,139z M180.4,142.6c-0.9-0.1-1.6-0.9-1.5-1.8c0.1-0.8,0.7-1.5,1.5-1.5l0,0
	c0.9,0.1,1.6,0.9,1.5,1.8C181.9,141.9,181.2,142.6,180.4,142.6z"/>
</svg>
