<svg id="Layer_1" data-name="Layer 1" xmlns="http://www.w3.org/2000/svg" viewBox="0 0 360 360"><defs><style>.cls-1{fill:#f19f53;}.cls-2{fill:#007573;}</style></defs><title>ARGO-Logo-Master-PMS</title><path class="cls-1" d="M233.62,199.78a5.62,5.62,0,0,0,5.61-5.61V158.25a4,4,0,0,0-4.09-3.8H128.29a4,4,0,0,1-4.09-3.8V150h0c.38-20.82,19.33-36.26,42.68-36.26,17.94,0,33.26,9.91,39.59,23.94a2,2,0,0,0,1.81,1.14h25.86a1.89,1.89,0,0,0,1.94-2.26c-7.46-28.06-35.57-49-69.2-49-39.34,0-71.23,28.54-71.23,63.75h0v6.84h0v17.19h0v9.4h0v9.36a5.62,5.62,0,0,0,5.61,5.61h13.84a5.62,5.62,0,0,0,5.61-5.61v-15a4,4,0,0,1,4.09-3.8h85.25a4,4,0,0,1,4.09,3.8v5.6h0v9.36a5.62,5.62,0,0,0,5.61,5.61h13.84Z"/><path class="cls-2" d="M95.46,249.46H40.82a2,2,0,0,1-2.09-1.94v-.32h0c.19-10.65,9.88-18.54,21.83-18.54,9.17,0,17,5.07,20.24,12.24a1,1,0,0,0,.93.58H95a1,1,0,0,0,1-1.16c-3.81-14.35-18.19-25-35.39-25-20.12,0-36.42,14.59-36.42,32.6h0v3.5h0v8.79h0V265h0v4.79A2.87,2.87,0,0,0,27,272.64h7.08A2.87,2.87,0,0,0,37,269.77v-7.65a2,2,0,0,1,2.09-1.94h43.6a2,2,0,0,1,2.09,1.94V265h0v4.79a2.87,2.87,0,0,0,2.87,2.87h7.08a2.87,2.87,0,0,0,2.87-2.87V251.4A2,2,0,0,0,95.46,249.46Z"/><path class="cls-2" d="M262.14,215.29c-18.38,0-33.28,12.89-33.28,28.79,0,14.65,12.65,26.74,29,28.55a2.78,2.78,0,0,0,3.09-2.76v-6.64a2.77,2.77,0,0,0-2.34-2.73c-8.78-1.42-15.43-8.09-15.43-16.1,0-9,8.48-16.38,18.94-16.38s18.94,7.33,18.94,16.38c0,7.6-6,14-14.11,15.84a2.75,2.75,0,0,0-2.12,2.69v6.73a2.78,2.78,0,0,0,3.19,2.74c15.57-2.41,27.38-14.17,27.38-28.33C295.42,228.18,280.52,215.29,262.14,215.29Z"/><path class="cls-2" d="M220.14,242H196.26a1.38,1.38,0,0,0-1.38,1.38v7.24a1.38,1.38,0,0,0,1.38,1.38H207.4a16.83,16.83,0,0,1-3.31,3.93l-.14.1a20.51,20.51,0,0,1-13,4.46c-10.84,0-19.56-7.89-18.88-17.4.58-8.2,8.34-14.86,17.82-15.31A21,21,0,0,1,202,230.82a2.13,2.13,0,0,0,1.13.33h13.13a2.1,2.1,0,0,0,1.67-3.4c-6.22-7.79-16.77-12.8-28.65-12.41-16.83.55-30.73,12.16-31.89,26.7-1.35,16.82,14,30.82,33.18,30.82a37.72,37.72,0,0,0,12.4-2.07,34.32,34.32,0,0,0,10.28-5.68c3.48-2.82,6.67-6.25,8-10.61a28.13,28.13,0,0,0,.7-10.83A1.82,1.82,0,0,0,220.14,242Z"/><path class="cls-2" d="M150.63,233.51c0-10.77-10.41-16.05-19.84-16.74-5.19-.38-10.46-.13-15.66-.13H94.46A1.38,1.38,0,0,0,93.08,218c0,.76,7.5,9,8.26,9h21.79c.12,0,0,0,.12,0,3.44.11,10.41.4,12.08,4.63a7.91,7.91,0,0,1-.48,6.67c-2.65,4.54-7.83,4.4-12.29,4.4H112a2.07,2.07,0,0,0-2.07,2.07v8.38a2.07,2.07,0,0,0,2.07,2.07h5.89c4.52,0,8.33-.14,11.75,3.05a11.73,11.73,0,0,1,2.19,2.86l1.18,3.73c1.78,6.59.32,8,3.53,8H148c1.32,0,2.33-.68,2.15-1.46,0-.14-.07-.29-.11-.45h.12s-.25-3.88-.3-4.23a32.65,32.65,0,0,0-.82-4.25,26.64,26.64,0,0,0-3.57-8,25.52,25.52,0,0,0-2.58-3.36,9,9,0,0,0-2.38-1.87C147.49,245.46,150.63,239.81,150.63,233.51Z"/><rect class="cls-1" x="331.84" y="237.26" width="3.99" height="15.91" rx="0.75" ry="0.75"/><path class="cls-1" d="M322.93,238h0c-.21-.12-.42-.24-.64-.35a11.81,11.81,0,0,0-5.36-1.27c-6,0-10.79,4.27-10.79,9.53h0v1h0v2.57h0v2.3a1.41,1.41,0,0,0,1.46,1.34h.87a1.41,1.41,0,0,0,1.46-1.34V250.1a.59.59,0,0,1,.62-.57h9.52a.61.61,0,0,0,.63-.58v-2c0-.32-.28-.39-.63-.39H311a.58.58,0,0,1-.56-.5v-.09c.06-3.11,2.93-5.62,6.47-5.62a7.06,7.06,0,0,1,3.19.76,5.65,5.65,0,0,1,3.25,4.86h0v.12a1.34,1.34,0,0,1,0,.21v3.29s0,.27,0,.55v1.74a1.32,1.32,0,0,0,1.36,1.34h1.68c.8,0,1.1-.6,1.1-1.34v-5.9A9,9,0,0,0,322.93,238Z"/></svg>